<?xml version="1.0" encoding="UTF-8"?>
<!DOCTYPE svg PUBLIC "-//W3C//DTD SVG 1.1//EN" "http://www.w3.org/Graphics/SVG/1.1/DTD/svg11.dtd">
<svg xmlns="http://www.w3.org/2000/svg" version="1.1" width="1024px" height="1024px" style="shape-rendering:geometricPrecision; text-rendering:geometricPrecision; image-rendering:optimizeQuality; fill-rule:evenodd; clip-rule:evenodd" xmlns:xlink="http://www.w3.org/1999/xlink">
<g><path style="opacity:1" fill="#f5f5f5" d="M -0.5,-0.5 C 340.833,-0.5 682.167,-0.5 1023.5,-0.5C 1023.5,340.833 1023.5,682.167 1023.5,1023.5C 682.167,1023.5 340.833,1023.5 -0.5,1023.5C -0.5,682.167 -0.5,340.833 -0.5,-0.5 Z"/></g>
<g><path style="opacity:1" fill="#0b0b0b" d="M 703.5,403.5 C 702.517,407.298 702.183,411.298 702.5,415.5C 694.833,415.5 687.167,415.5 679.5,415.5C 679.813,411.958 679.479,408.625 678.5,405.5C 678.665,402.482 678.498,399.482 678,396.5C 673.503,393.251 668.837,390.251 664,387.5C 659.813,325.823 655.647,264.156 651.5,202.5C 747.001,202.167 842.335,202.501 937.5,203.5C 560.167,203.667 560.167,204.167 937.5,205C 939.32,205.979 940.487,207.479 941,209.5C 941.667,289.5 941.667,369.5 941,449.5C 940.535,450.931 939.701,452.097 938.5,453C 747.167,453.333 555.833,453.667 364.5,454C 363.328,454.419 362.328,455.085 361.5,456C 361.728,456.399 362.062,456.565 362.5,456.5C 360.115,458.602 358.782,461.269 358.5,464.5C 362.708,486.871 367.041,509.204 371.5,531.5C 370.6,540.621 365.6,544.455 356.5,543C 261.553,474.387 166.886,405.387 72.5,336C 64.7512,329.827 63.5845,322.661 69,314.5C 164.604,242.895 260.771,172.061 357.5,102C 366.003,100.179 371.003,103.513 372.5,112C 367.997,139.185 363.33,166.352 358.5,193.5C 358.743,197.151 360.41,199.984 363.5,202C 434.833,202.5 506.166,202.667 577.5,202.5C 576.944,215.173 576.277,227.84 575.5,240.5C 569.617,300.732 564.95,361.066 561.5,421.5C 563.833,421.5 566.167,421.5 568.5,421.5C 575.182,334.83 582.015,248.164 589,161.5C 589.717,160.956 590.217,160.289 590.5,159.5C 592.82,157.774 595.487,157.107 598.5,157.5C 599.475,130.486 600.475,103.486 601.5,76.5C 603.167,76.5 604.833,76.5 606.5,76.5C 607.534,101.83 608.534,127.163 609.5,152.5C 613.134,153.511 616.801,153.511 620.5,152.5C 621.014,128.828 621.681,105.161 622.5,81.5C 624.167,81.5 625.833,81.5 627.5,81.5C 627.923,106.196 628.923,130.863 630.5,155.5C 634.167,155.5 637.833,155.5 641.5,155.5C 646.158,234.512 650.991,313.512 656,392.5C 660.536,395.433 665.203,398.1 670,400.5C 670.879,408.048 671.712,415.548 672.5,423C 685.162,423.5 697.829,423.667 710.5,423.5C 710.334,417.158 710.5,410.825 711,404.5C 713.641,397.26 718.475,395.094 725.5,398C 727.049,399.214 728.215,400.714 729,402.5C 730.036,410.019 730.869,417.519 731.5,425C 739.882,425.803 748.215,425.636 756.5,424.5C 757.333,391.172 757.833,357.838 758,324.5C 762.922,315.238 770.089,313.071 779.5,318C 781.894,319.952 783.394,322.452 784,325.5C 784.5,356.832 784.667,388.165 784.5,419.5C 795.906,419.047 807.239,418.213 818.5,417C 819,416.5 819.5,416 820,415.5C 820.5,406.84 820.666,398.173 820.5,389.5C 832.167,389.5 843.833,389.5 855.5,389.5C 855.5,402.167 855.5,414.833 855.5,427.5C 857.833,427.5 860.167,427.5 862.5,427.5C 862.824,412.255 862.491,397.089 861.5,382C 846.167,381.333 830.833,381.333 815.5,382C 815,382.5 814.5,383 814,383.5C 813.5,392.827 813.334,402.161 813.5,411.5C 806.5,411.5 799.5,411.5 792.5,411.5C 792.667,382.498 792.5,353.498 792,324.5C 789.764,315.931 784.431,310.264 776,307.5C 775.5,290.837 775.333,274.17 775.5,257.5C 773.167,257.5 770.833,257.5 768.5,257.5C 768.667,274.17 768.5,290.837 768,307.5C 758.889,309.275 752.889,314.609 750,323.5C 749.5,354.832 749.333,386.165 749.5,417.5C 745.5,417.5 741.5,417.5 737.5,417.5C 737.87,411.075 737.37,404.742 736,398.5C 730.147,388.773 721.98,386.273 711.5,391C 706.932,393.974 704.265,398.141 703.5,403.5 Z"/></g>
<g><path style="opacity:1" fill="#ededed" d="M 590.5,159.5 C 590.217,160.289 589.717,160.956 589,161.5C 582.015,248.164 575.182,334.83 568.5,421.5C 566.167,421.5 563.833,421.5 561.5,421.5C 564.95,361.066 569.617,300.732 575.5,240.5C 575.873,256.905 574.873,273.405 572.5,290C 572.357,297.81 572.357,305.643 572.5,313.5C 570.691,318.023 569.858,322.69 570,327.5C 570.654,326.304 571.154,326.304 571.5,327.5C 570.738,331.111 570.238,334.778 570,338.5C 569.346,337.304 568.846,337.304 568.5,338.5C 571.194,342.302 571.027,345.969 568,349.5C 567.63,358.55 566.797,367.55 565.5,376.5C 566.95,381.764 566.616,386.93 564.5,392C 565.773,400.686 565.106,409.353 562.5,418C 562.667,418.5 562.833,419 563,419.5C 564.011,418.663 565.178,418.33 566.5,418.5C 566.213,413.202 566.88,408.036 568.5,403C 566.999,399.169 567.333,395.502 569.5,392C 567.946,387.784 568.279,383.784 570.5,380C 568.876,375.819 569.209,371.819 571.5,368C 569.87,364.059 570.204,360.392 572.5,357C 571.298,350.99 571.631,344.99 573.5,339C 571.867,334.785 572.2,330.785 574.5,327C 573.137,322.256 573.47,317.59 575.5,313C 573.999,309.169 574.333,305.502 576.5,302C 575.235,297.74 575.568,293.573 577.5,289.5C 577.182,288.353 576.516,287.519 575.5,287C 577.591,281.798 578.258,276.465 577.5,271C 579.266,267.238 579.599,263.405 578.5,259.5C 580.832,239.852 582.832,220.185 584.5,200.5C 583.833,199.167 583.167,197.833 582.5,196.5C 583.645,193.252 584.479,189.919 585,186.5C 585.477,178.484 586.144,170.484 587,162.5C 587.583,160.998 588.416,159.665 589.5,158.5C 590.107,158.624 590.44,158.957 590.5,159.5 Z"/></g>
<g><path style="opacity:1" fill="#f4f4f4" d="M 421.5,372.5 C 415.69,371.51 409.69,371.177 403.5,371.5C 403.5,383.833 403.5,396.167 403.5,408.5C 398.167,408.5 392.833,408.5 387.5,408.5C 387.5,414.5 387.5,420.5 387.5,426.5C 377.161,426.666 366.828,426.5 356.5,426C 356,425.5 355.5,425 355,424.5C 354.5,391.835 354.333,359.168 354.5,326.5C 341.833,326.5 329.167,326.5 316.5,326.5C 316.667,341.504 316.5,356.504 316,371.5C 307.078,370.034 298.245,367.368 289.5,363.5C 284.521,367.311 279.688,371.311 275,375.5C 274.5,391.83 274.333,408.163 274.5,424.5C 271.833,424.5 269.167,424.5 266.5,424.5C 266.167,406.488 266.5,388.488 267.5,370.5C 273.976,365.858 280.309,361.025 286.5,356C 293.88,356.789 301.047,358.623 308,361.5C 308.333,347.833 308.667,334.167 309,320.5C 309.5,320 310,319.5 310.5,319C 326.5,318.333 342.5,318.333 358.5,319C 359.416,319.374 360.25,319.874 361,320.5C 361.5,353.498 361.667,386.498 361.5,419.5C 367.5,419.5 373.5,419.5 379.5,419.5C 379.5,413.5 379.5,407.5 379.5,401.5C 385.167,401.5 390.833,401.5 396.5,401.5C 396.5,390.833 396.5,380.167 396.5,369.5C 396.859,367.629 397.859,366.129 399.5,365C 408.167,364.333 416.833,364.333 425.5,365C 426.931,365.465 428.097,366.299 429,367.5C 429.499,373.157 429.666,378.824 429.5,384.5C 435.861,384.603 442.194,385.103 448.5,386C 449.337,387.011 449.67,388.178 449.5,389.5C 453.833,389.5 458.167,389.5 462.5,389.5C 462.5,392.5 462.5,395.5 462.5,398.5C 467.833,398.5 473.167,398.5 478.5,398.5C 478.5,405.5 478.5,412.5 478.5,419.5C 483.167,419.5 487.833,419.5 492.5,419.5C 492.5,376.833 492.5,334.167 492.5,291.5C 494.833,291.5 497.167,291.5 499.5,291.5C 499.5,288.833 499.5,286.167 499.5,283.5C 512.504,283.333 525.504,283.5 538.5,284C 539.435,286.381 539.768,288.881 539.5,291.5C 542.167,291.5 544.833,291.5 547.5,291.5C 547.5,335.833 547.5,380.167 547.5,424.5C 544.5,424.5 541.5,424.5 538.5,424.5C 538.5,382.833 538.5,341.167 538.5,299.5C 536.5,299.5 534.5,299.5 532.5,299.5C 532.296,296.482 531.963,293.482 531.5,290.5C 523.167,290.5 514.833,290.5 506.5,290.5C 506.5,293.5 506.5,296.5 506.5,299.5C 504.5,299.5 502.5,299.5 500.5,299.5C 500.5,342.167 500.5,384.833 500.5,427.5C 491.827,427.666 483.16,427.5 474.5,427C 473.667,426.167 472.833,425.333 472,424.5C 471.501,418.509 471.334,412.509 471.5,406.5C 465.491,406.666 459.491,406.499 453.5,406C 452.549,402.943 452.216,399.777 452.5,396.5C 442.167,396.5 431.833,396.5 421.5,396.5C 421.5,388.5 421.5,380.5 421.5,372.5 Z"/></g>
<g><path style="opacity:1" fill="#676666" d="M 396.5,369.5 C 396.5,380.167 396.5,390.833 396.5,401.5C 390.833,401.5 385.167,401.5 379.5,401.5C 384.64,400.512 389.974,400.179 395.5,400.5C 395.172,389.986 395.506,379.653 396.5,369.5 Z"/></g>
<g><path style="opacity:1" fill="#7d7c7c" d="M 421.5,372.5 C 415.833,372.5 410.167,372.5 404.5,372.5C 404.828,384.678 404.495,396.678 403.5,408.5C 403.5,396.167 403.5,383.833 403.5,371.5C 409.69,371.177 415.69,371.51 421.5,372.5 Z"/></g>
<g><path style="opacity:1" fill="#727374" d="M 703.5,403.5 C 703.5,407.833 703.5,412.167 703.5,416.5C 695.167,416.5 686.833,416.5 678.5,416.5C 678.5,412.833 678.5,409.167 678.5,405.5C 679.479,408.625 679.813,411.958 679.5,415.5C 687.167,415.5 694.833,415.5 702.5,415.5C 702.183,411.298 702.517,407.298 703.5,403.5 Z"/></g>
<g><path style="opacity:1" fill="#010101" d="M 937.5,203.5 C 939.752,203.916 941.252,205.249 942,207.5C 942.667,288.833 942.667,370.167 942,451.5C 940.833,452.667 939.667,453.833 938.5,455C 746.46,455.169 554.46,455.669 362.5,456.5C 362.062,456.565 361.728,456.399 361.5,456C 362.328,455.085 363.328,454.419 364.5,454C 555.833,453.667 747.167,453.333 938.5,453C 939.701,452.097 940.535,450.931 941,449.5C 941.667,369.5 941.667,289.5 941,209.5C 940.487,207.479 939.32,205.979 937.5,205C 560.167,204.167 560.167,203.667 937.5,203.5 Z"/></g>
<g><path style="opacity:1" fill="#0c0c0c" d="M 143.5,554.5 C 186.937,552.431 210.77,573.098 215,616.5C 215.667,631.167 215.667,645.833 215,660.5C 209.057,713.388 180.224,733.555 128.5,721C 112.226,713.389 101.726,700.889 97,683.5C 90.2681,655.556 89.9348,627.556 96,599.5C 100.255,580.592 111.089,567.092 128.5,559C 133.535,557.151 138.535,555.651 143.5,554.5 Z"/></g>
<g><path style="opacity:1" fill="#606161" d="M 349.5,559.5 C 337.833,559.5 326.167,559.5 314.5,559.5C 314.829,573.344 314.496,587.01 313.5,600.5C 313.5,586.5 313.5,572.5 313.5,558.5C 325.678,558.172 337.678,558.505 349.5,559.5 Z"/></g>
<g><path style="opacity:1" fill="#7c7d7e" d="M 859.5,559.5 C 845.656,559.171 831.99,559.504 818.5,560.5C 817.957,560.44 817.624,560.107 817.5,559.5C 831.661,558.174 845.661,558.174 859.5,559.5 Z"/></g>
<g><path style="opacity:1" fill="#6d6d6e" d="M 902.5,559.5 C 915.006,558.175 927.673,558.175 940.5,559.5C 940.376,560.107 940.043,560.44 939.5,560.5C 927.345,559.505 915.011,559.171 902.5,559.5 Z"/></g>
<g><path style="opacity:1" fill="#5a5c5b" d="M 671.5,560.5 C 682.988,559.505 694.655,559.172 706.5,559.5C 706.737,560.791 706.404,561.791 705.5,562.5C 694.549,560.522 683.216,559.856 671.5,560.5 Z"/></g>
<g><path style="opacity:1" fill="#0c0c0c" d="M 313.5,600.5 C 314.496,587.01 314.829,573.344 314.5,559.5C 326.167,559.5 337.833,559.5 349.5,559.5C 349.5,613.5 349.5,667.5 349.5,721.5C 337.586,721.821 325.753,721.488 314,720.5C 299.667,689.833 285.333,659.167 271,628.5C 269.292,659.495 269.126,690.495 270.5,721.5C 259.5,721.5 248.5,721.5 237.5,721.5C 237.333,667.499 237.5,613.499 238,559.5C 249.419,558.512 260.919,558.179 272.5,558.5C 281.362,577.226 290.529,595.892 300,614.5C 304.286,625.367 308.953,636.033 314,646.5C 313.549,631.224 313.382,615.891 313.5,600.5 Z"/></g>
<g><path style="opacity:1" fill="#0b0b0b" d="M 464.5,559.5 C 464.5,570.167 464.5,580.833 464.5,591.5C 447.167,591.5 429.833,591.5 412.5,591.5C 412.5,602.167 412.5,612.833 412.5,623.5C 428.167,623.5 443.833,623.5 459.5,623.5C 459.5,634.5 459.5,645.5 459.5,656.5C 443.833,656.5 428.167,656.5 412.5,656.5C 412.5,667.5 412.5,678.5 412.5,689.5C 430.5,689.5 448.5,689.5 466.5,689.5C 466.5,700.167 466.5,710.833 466.5,721.5C 436.167,721.5 405.833,721.5 375.5,721.5C 375.5,667.5 375.5,613.5 375.5,559.5C 405.167,559.5 434.833,559.5 464.5,559.5 Z"/></g>
<g><path style="opacity:1" fill="#0b0b0b" d="M 671.5,560.5 C 683.216,559.856 694.549,560.522 705.5,562.5C 696.111,615.563 686.444,668.563 676.5,721.5C 663.5,721.5 650.5,721.5 637.5,721.5C 631.637,691.052 625.304,660.719 618.5,630.5C 612.318,660.561 605.818,690.561 599,720.5C 586.58,721.489 574.08,721.822 561.5,721.5C 551.716,667.465 541.716,613.465 531.5,559.5C 543.167,559.5 554.833,559.5 566.5,559.5C 572.131,589.918 578.131,620.251 584.5,650.5C 589.607,620.3 595.607,590.3 602.5,560.5C 613.728,559.18 624.895,559.18 636,560.5C 642.245,591.462 648.245,622.462 654,653.5C 659.54,622.308 665.373,591.308 671.5,560.5 Z"/></g>
<g><path style="opacity:1" fill="#0b0b0b" d="M 831.5,717.5 C 831.539,718.583 831.873,719.583 832.5,720.5C 819.851,721.499 807.184,721.832 794.5,721.5C 792.499,711.164 790.499,700.831 788.5,690.5C 774.817,690.167 761.15,690.501 747.5,691.5C 744.733,701.003 742.733,710.669 741.5,720.5C 730.08,718.718 718.414,717.885 706.5,718C 708.658,716.688 708.991,715.022 707.5,713C 710.215,703.658 713.215,694.491 716.5,685.5C 716.167,684.833 715.833,684.167 715.5,683.5C 718.897,673.273 721.564,663.107 723.5,653C 724.308,652.692 724.975,652.192 725.5,651.5C 725.694,649.737 725.694,647.903 725.5,646C 728.227,643.759 728.894,641.093 727.5,638C 728.308,637.692 728.975,637.192 729.5,636.5C 729.694,634.737 729.694,632.903 729.5,631C 731.494,628.153 732.828,624.986 733.5,621.5C 732.529,620.038 732.862,618.705 734.5,617.5C 733.522,616.199 733.855,615.032 735.5,614C 736.856,610.979 737.19,607.979 736.5,605C 739.289,601.617 740.623,597.951 740.5,594C 742.48,590.447 743.146,586.781 742.5,583C 744.592,582.047 744.925,580.714 743.5,579C 746.385,573.495 748.385,567.661 749.5,561.5C 763.598,561.035 777.598,561.535 791.5,563C 791.248,565.793 791.248,568.293 791.5,570.5C 791.662,572.841 792.662,574.675 794.5,576C 793.185,577.395 793.519,578.395 795.5,579C 794.833,579.333 794.167,579.667 793.5,580C 795.103,584.116 796.77,588.283 798.5,592.5C 801.49,604.633 804.49,616.466 807.5,628C 806.315,630.787 806.982,633.12 809.5,635C 808.075,636.714 808.408,638.047 810.5,639C 810.246,641.144 810.246,643.144 810.5,645C 812.145,646.032 812.478,647.199 811.5,648.5C 813.536,651.516 814.202,654.682 813.5,658C 813.851,660.193 814.851,662.026 816.5,663.5C 816.167,664.167 815.833,664.833 815.5,665.5C 816.629,669.111 817.962,672.611 819.5,676C 818.185,677.395 818.519,678.395 820.5,679C 820.043,679.414 819.709,679.914 819.5,680.5C 823.548,692.656 827.048,705.323 830,718.5C 830.383,717.944 830.883,717.611 831.5,717.5 Z"/></g>
<g><path style="opacity:1" fill="#0b0b0b" d="M 859.5,559.5 C 867.024,578.572 873.858,597.905 880,617.5C 886.71,597.764 894.21,578.431 902.5,559.5C 915.011,559.171 927.345,559.505 939.5,560.5C 926.493,592.015 912.993,623.348 899,654.5C 898.5,676.831 898.333,699.164 898.5,721.5C 885.833,721.5 873.167,721.5 860.5,721.5C 860.667,699.497 860.5,677.497 860,655.5C 846.152,623.807 832.319,592.141 818.5,560.5C 831.99,559.504 845.656,559.171 859.5,559.5 Z"/></g>
<g><path style="opacity:1" fill="#f4f4f5" d="M 145.5,589.5 C 157.861,586.661 167.027,590.661 173,601.5C 177.09,613.306 178.924,625.473 178.5,638C 178.427,648.229 177.594,658.396 176,668.5C 171.685,689.406 159.852,695.573 140.5,687C 137.469,684.441 135.302,681.274 134,677.5C 132.194,671.944 130.861,666.278 130,660.5C 128.908,642.75 129.575,625.084 132,607.5C 133.872,599.379 138.372,593.379 145.5,589.5 Z"/></g>
<g><path style="opacity:1" fill="#171718" d="M 831.5,717.5 C 830.883,717.611 830.383,717.944 830,718.5C 827.048,705.323 823.548,692.656 819.5,680.5C 819.709,679.914 820.043,679.414 820.5,679C 818.519,678.395 818.185,677.395 819.5,676C 817.962,672.611 816.629,669.111 815.5,665.5C 815.833,664.833 816.167,664.167 816.5,663.5C 814.851,662.026 813.851,660.193 813.5,658C 814.202,654.682 813.536,651.516 811.5,648.5C 812.478,647.199 812.145,646.032 810.5,645C 810.246,643.144 810.246,641.144 810.5,639C 808.408,638.047 808.075,636.714 809.5,635C 806.982,633.12 806.315,630.787 807.5,628C 804.49,616.466 801.49,604.633 798.5,592.5C 796.77,588.283 795.103,584.116 793.5,580C 794.167,579.667 794.833,579.333 795.5,579C 793.519,578.395 793.185,577.395 794.5,576C 792.662,574.675 791.662,572.841 791.5,570.5C 791.248,568.293 791.248,565.793 791.5,563C 777.598,561.535 763.598,561.035 749.5,561.5C 748.385,567.661 746.385,573.495 743.5,579C 744.925,580.714 744.592,582.047 742.5,583C 743.146,586.781 742.48,590.447 740.5,594C 740.623,597.951 739.289,601.617 736.5,605C 737.19,607.979 736.856,610.979 735.5,614C 733.855,615.032 733.522,616.199 734.5,617.5C 732.862,618.705 732.529,620.038 733.5,621.5C 732.828,624.986 731.494,628.153 729.5,631C 729.694,632.903 729.694,634.737 729.5,636.5C 728.975,637.192 728.308,637.692 727.5,638C 728.894,641.093 728.227,643.759 725.5,646C 725.694,647.903 725.694,649.737 725.5,651.5C 724.975,652.192 724.308,652.692 723.5,653C 721.564,663.107 718.897,673.273 715.5,683.5C 715.833,684.167 716.167,684.833 716.5,685.5C 713.215,694.491 710.215,703.658 707.5,713C 708.991,715.022 708.658,716.688 706.5,718C 718.414,717.885 730.08,718.718 741.5,720.5C 729.345,721.495 717.011,721.829 704.5,721.5C 718.192,667.734 732.359,614.067 747,560.5C 754.265,559.185 761.765,558.518 769.5,558.5C 777.235,558.518 784.735,559.185 792,560.5C 805.642,612.734 818.809,665.068 831.5,717.5 Z"/></g>
<g><path style="opacity:1" fill="#696969" d="M 464.5,559.5 C 434.833,559.5 405.167,559.5 375.5,559.5C 375.5,613.5 375.5,667.5 375.5,721.5C 374.501,667.336 374.168,613.003 374.5,558.5C 404.671,558.169 434.671,558.502 464.5,559.5 Z"/></g>
<g><path style="opacity:1" fill="#f3f3f3" d="M 767.5,608.5 C 768.649,608.791 769.316,609.624 769.5,611C 773.194,627.443 777.194,643.776 781.5,660C 772.506,660.5 763.506,660.666 754.5,660.5C 758.835,643.162 763.168,625.828 767.5,608.5 Z"/></g>
<g><path style="opacity:1" fill="#070708" d="M 95.5,750.5 C 124.167,750.5 152.833,750.5 181.5,750.5C 181.5,761.167 181.5,771.833 181.5,782.5C 164.5,782.5 147.5,782.5 130.5,782.5C 130.5,792.833 130.5,803.167 130.5,813.5C 145.324,814.496 160.324,814.829 175.5,814.5C 175.5,824.5 175.5,834.5 175.5,844.5C 160.5,844.5 145.5,844.5 130.5,844.5C 130.5,844.833 130.5,845.167 130.5,845.5C 130.5,855.833 130.5,866.167 130.5,876.5C 148.167,876.5 165.833,876.5 183.5,876.5C 183.5,886.833 183.5,897.167 183.5,907.5C 154.167,907.5 124.833,907.5 95.5,907.5C 95.5,855.167 95.5,802.833 95.5,750.5 Z"/></g>
<g><path style="opacity:1" fill="#040404" d="M 304.5,750.5 C 332.833,750.5 361.167,750.5 389.5,750.5C 389.5,760.833 389.5,771.167 389.5,781.5C 372.658,781.17 355.992,781.503 339.5,782.5C 339.5,792.833 339.5,803.167 339.5,813.5C 354.833,813.5 370.167,813.5 385.5,813.5C 385.5,823.833 385.5,834.167 385.5,844.5C 370.167,844.5 354.833,844.5 339.5,844.5C 339.5,855.167 339.5,865.833 339.5,876.5C 357.167,876.5 374.833,876.5 392.5,876.5C 392.5,886.833 392.5,897.167 392.5,907.5C 363.167,907.5 333.833,907.5 304.5,907.5C 304.5,855.167 304.5,802.833 304.5,750.5 Z"/></g>
<g><path style="opacity:1" fill="#0c0c0c" d="M 454.5,748.5 C 472.126,746.074 488.126,749.908 502.5,760C 512.75,772.257 517.083,786.423 515.5,802.5C 504.804,803.207 494.137,804.207 483.5,805.5C 484.08,796.734 481.413,789.234 475.5,783C 459.762,777.484 450.262,782.984 447,799.5C 445.401,817.789 445.068,836.122 446,854.5C 446.277,863.015 449.443,870.182 455.5,876C 474.289,882.402 483.955,875.569 484.5,855.5C 495.5,855.5 506.5,855.5 517.5,855.5C 517.803,891.365 499.969,909.698 464,910.5C 434.7,909.998 417.033,895.331 411,866.5C 406.042,840.74 406.375,815.073 412,789.5C 417.261,766.403 431.427,752.736 454.5,748.5 Z"/></g>
<g><path style="opacity:1" fill="#0c0c0c" d="M 873.5,748.5 C 914.347,743.695 935.347,761.695 936.5,802.5C 925.507,803.573 914.507,804.573 903.5,805.5C 903.65,797.452 901.317,790.286 896.5,784C 881.505,777.412 871.338,781.912 866,797.5C 863.057,817.776 862.724,838.109 865,858.5C 866.653,870.482 873.319,877.482 885,879.5C 898.086,877.048 904.253,869.048 903.5,855.5C 914.5,855.5 925.5,855.5 936.5,855.5C 938.441,879.803 928.441,896.97 906.5,907C 863.609,919.315 837.442,903.815 828,860.5C 824.358,837.368 825.025,814.368 830,791.5C 835.84,768.159 850.34,753.825 873.5,748.5 Z"/></g>
<g><path style="opacity:1" fill="#0b0b0b" d="M 130.5,844.5 C 129.883,844.611 129.383,844.944 129,845.5C 128.821,856.077 128.321,866.577 127.5,877C 145.765,878.461 164.098,878.961 182.5,878.5C 182.5,887.833 182.5,897.167 182.5,906.5C 153.833,906.5 125.167,906.5 96.5,906.5C 96.5,855.167 96.5,803.833 96.5,752.5C 124.167,752.5 151.833,752.5 179.5,752.5C 179.5,761.833 179.5,771.167 179.5,780.5C 162.833,780.5 146.167,780.5 129.5,780.5C 128.21,791.846 128.21,803.179 129.5,814.5C 144.485,815.499 159.485,815.833 174.5,815.5C 174.5,824.833 174.5,834.167 174.5,843.5C 159.657,843.171 144.99,843.504 130.5,844.5 Z"/></g>
<g><path style="opacity:1" fill="#0c0c0c" d="M 205.5,750.5 C 217.178,750.515 228.845,750.848 240.5,751.5C 240.5,793.167 240.5,834.833 240.5,876.5C 256.167,876.5 271.833,876.5 287.5,876.5C 287.5,887.167 287.5,897.833 287.5,908.5C 260.167,908.5 232.833,908.5 205.5,908.5C 205.5,855.833 205.5,803.167 205.5,750.5 Z"/></g>
<g><path style="opacity:1" fill="#0b0b0b" d="M 305.5,752.5 C 333.167,752.5 360.833,752.5 388.5,752.5C 388.5,761.833 388.5,771.167 388.5,780.5C 371.83,780.333 355.163,780.5 338.5,781C 337.512,792.419 337.179,803.919 337.5,815.5C 352.833,815.5 368.167,815.5 383.5,815.5C 383.5,824.833 383.5,834.167 383.5,843.5C 368.496,843.333 353.496,843.5 338.5,844C 337.347,854.757 337.18,865.59 338,876.5C 338.667,877.167 339.333,877.833 340,878.5C 356.54,877.556 373.373,877.223 390.5,877.5C 390.5,887.167 390.5,896.833 390.5,906.5C 362.167,906.5 333.833,906.5 305.5,906.5C 305.5,855.167 305.5,803.833 305.5,752.5 Z"/></g>
<g><path style="opacity:1" fill="#0b0b0b" d="M 596.5,782.5 C 595.501,823.997 595.168,865.663 595.5,907.5C 583.833,907.5 572.167,907.5 560.5,907.5C 560.5,865.833 560.5,824.167 560.5,782.5C 549.5,782.5 538.5,782.5 527.5,782.5C 527.5,771.833 527.5,761.167 527.5,750.5C 561.5,750.5 595.5,750.5 629.5,750.5C 629.5,761.167 629.5,771.833 629.5,782.5C 618.5,782.5 607.5,782.5 596.5,782.5 Z"/></g>
<g><path style="opacity:1" fill="#0b0b0b" d="M 644.5,750.5 C 667.169,750.333 689.836,750.5 712.5,751C 739.422,757.12 752.422,774.12 751.5,802C 752.168,814.322 749.001,825.488 742,835.5C 737.404,840.436 732.57,844.936 727.5,849C 736.457,868.041 745.124,887.207 753.5,906.5C 741.18,907.666 728.847,907.833 716.5,907C 707.926,889.685 700.593,871.852 694.5,853.5C 689.88,852.507 685.214,852.173 680.5,852.5C 680.5,870.833 680.5,889.167 680.5,907.5C 668.5,907.5 656.5,907.5 644.5,907.5C 644.5,855.167 644.5,802.833 644.5,750.5 Z"/></g>
<g><path style="opacity:1" fill="#0e0e0e" d="M 772.5,750.5 C 784.167,750.5 795.833,750.5 807.5,750.5C 807.5,802.833 807.5,855.167 807.5,907.5C 795.5,907.5 783.5,907.5 771.5,907.5C 771.638,855.165 771.971,802.832 772.5,750.5 Z"/></g>
<g><path style="opacity:1" fill="#797a7a" d="M 389.5,750.5 C 390.494,760.987 390.828,771.654 390.5,782.5C 373.5,782.5 356.5,782.5 339.5,782.5C 355.992,781.503 372.658,781.17 389.5,781.5C 389.5,771.167 389.5,760.833 389.5,750.5 Z"/></g>
<g><path style="opacity:1" fill="#f4f4f4" d="M 680.5,781.5 C 687.508,781.334 694.508,781.5 701.5,782C 707.383,782.597 711.383,785.597 713.5,791C 716.302,799.237 716.135,807.403 713,815.5C 709.676,820.809 704.842,823.642 698.5,824C 692.509,824.499 686.509,824.666 680.5,824.5C 680.5,810.167 680.5,795.833 680.5,781.5 Z"/></g>
<g><path style="opacity:1" fill="#89898a" d="M 596.5,782.5 C 596.5,824.5 596.5,866.5 596.5,908.5C 584.322,908.828 572.322,908.495 560.5,907.5C 572.167,907.5 583.833,907.5 595.5,907.5C 595.168,865.663 595.501,823.997 596.5,782.5 Z"/></g>
<g><path style="opacity:1" fill="#5f5f60" d="M 130.5,813.5 C 145.833,813.5 161.167,813.5 176.5,813.5C 176.5,824.167 176.5,834.833 176.5,845.5C 161.167,845.5 145.833,845.5 130.5,845.5C 130.5,845.167 130.5,844.833 130.5,844.5C 145.5,844.5 160.5,844.5 175.5,844.5C 175.5,834.5 175.5,824.5 175.5,814.5C 160.324,814.829 145.324,814.496 130.5,813.5 Z"/></g>
<g><path style="opacity:1" fill="#626162" d="M 95.5,750.5 C 95.5,802.833 95.5,855.167 95.5,907.5C 124.833,907.5 154.167,907.5 183.5,907.5C 183.5,897.167 183.5,886.833 183.5,876.5C 184.494,886.987 184.828,897.654 184.5,908.5C 154.5,908.5 124.5,908.5 94.5,908.5C 94.1677,855.664 94.5011,802.997 95.5,750.5 Z"/></g>
<g><path style="opacity:1" fill="#757576" d="M 304.5,750.5 C 304.5,802.833 304.5,855.167 304.5,907.5C 333.833,907.5 363.167,907.5 392.5,907.5C 363.005,908.498 333.338,908.831 303.5,908.5C 303.168,855.664 303.501,802.997 304.5,750.5 Z"/></g>
</svg>
